# Blender 5.0.1
# www.blender.org
o 14
v 20.000000 0.000000 -20.000000
v 0.000000 0.000000 0.000000
v 20.000000 0.000000 0.000000
v 0.000000 0.000000 -20.000000
vn -0.0000 1.0000 -0.0000
s 0
f 1//1 2//1 3//1
f 1//1 4//1 2//1
o 7
v 20.000000 3.000000 -20.000000
v 20.000000 3.000000 0.000000
v 0.000000 3.000000 0.000000
v 0.000000 3.000000 -20.000000
vn -0.0000 -1.0000 -0.0000
s 0
f 5//2 6//2 7//2
f 5//2 7//2 8//2
o 9
v 2.800000 0.200000 -7.500000
v 5.000000 0.000000 -7.500000
v 5.000000 0.200000 -7.500000
v 2.800000 0.000000 -7.500000
v 5.000000 0.000000 -12.500000
v 5.000000 0.200000 -12.500000
v 2.800000 0.000000 -12.500000
v 2.800000 0.200000 -12.500000
vn -0.0000 -0.0000 1.0000
vn 1.0000 -0.0000 -0.0000
vn -0.0000 -0.0000 -1.0000
vn -0.0000 1.0000 -0.0000
s 0
f 9//3 10//3 11//3
f 9//3 12//3 10//3
f 10//4 13//4 14//4
f 10//4 14//4 11//4
f 14//5 15//5 16//5
f 9//6 11//6 14//6
f 14//5 13//5 15//5
f 9//6 14//6 16//6
o 1
v 17.450001 0.000000 -8.500000
v 17.450001 3.000000 -8.500000
v 17.500000 3.000000 -8.500000
v 17.500000 0.000000 -8.500000
v 17.250000 3.000000 -8.500000
v 17.200001 0.000000 -8.500000
v 17.200001 3.000000 -8.500000
v 17.250000 0.000000 -8.500000
v 17.200001 3.000000 -6.800000
v 17.200001 0.000000 -6.800000
v 6.200000 0.000000 -6.800000
v 6.200000 3.000000 -6.800000
v 6.200000 3.000000 -6.750000
v 6.200000 0.000000 -6.750000
v 6.200000 0.000000 -6.550000
v 6.200000 3.000000 -6.500000
v 6.200000 3.000000 -6.550000
v 6.200000 0.000000 -6.500000
v 17.500000 0.000000 -6.500000
v 17.500000 3.000000 -6.500000
v 2.500000 3.000000 -6.500000
v 5.000000 0.000000 -6.500000
v 5.000000 3.000000 -6.500000
v 2.500000 0.000000 -6.500000
v 5.000000 3.000000 -6.550000
v 5.000000 0.000000 -6.550000
v 5.000000 0.000000 -6.750000
v 5.000000 0.000000 -6.800000
v 5.000000 3.000000 -6.800000
v 5.000000 3.000000 -6.750000
v 2.800000 0.000000 -6.800000
v 2.800000 3.000000 -6.800000
v 2.800000 0.000000 -7.500000
v 2.800000 3.000000 -7.500000
v 2.800000 0.200000 -7.500000
v 2.800000 0.200000 -12.500000
v 2.800000 3.000000 -12.500000
v 2.800000 0.000000 -12.500000
v 2.800000 0.000000 -13.200000
v 2.800000 3.000000 -13.200000
v 5.000000 0.000000 -13.200000
v 5.000000 3.000000 -13.200000
v 17.250000 0.000000 -11.500000
v 17.250000 3.000000 -11.500000
v 17.200001 3.000000 -11.500000
v 5.000000 3.000000 -13.250000
v 5.000000 0.000000 -13.250000
v 5.000000 0.000000 -13.450000
v 5.000000 0.000000 -13.500000
v 5.000000 3.000000 -13.500000
v 2.500000 0.000000 -13.500000
v 2.500000 3.000000 -13.500000
v 5.000000 3.000000 -13.450000
v 17.200001 0.000000 -11.500000
v 17.450001 3.000000 -11.500000
v 17.500000 0.000000 -11.500000
v 17.500000 3.000000 -11.500000
v 17.500000 0.000000 -13.500000
v 17.500000 3.000000 -13.500000
v 17.450001 0.000000 -11.500000
v 6.200000 0.000000 -13.500000
v 6.200000 3.000000 -13.500000
v 0.400000 0.000000 -19.600000
v 0.400000 3.000000 -15.000000
v 0.400000 0.000000 -15.000000
v 6.200000 3.000000 -13.450000
v 6.200000 0.000000 -13.450000
v 6.200000 0.000000 -13.250000
v 6.200000 3.000000 -13.200000
v 6.200000 3.000000 -13.250000
v 6.200000 0.000000 -13.200000
v 17.200001 0.000000 -13.200000
v 17.200001 3.000000 -13.200000
v 1.800000 3.000000 -14.750000
v 1.800000 3.000000 -14.700000
v 1.800000 0.000000 -14.750000
v 1.800000 0.000000 -14.700000
v 1.800000 3.000000 -14.950000
v 1.800000 0.000000 -15.000000
v 1.800000 3.000000 -15.000000
v 1.800000 0.000000 -14.950000
v 0.400000 3.000000 -19.600000
v 9.850000 3.000000 -19.600000
v 9.850000 0.000000 -19.600000
v 9.850000 0.000000 -15.000000
v 3.000000 3.000000 -15.000000
v 9.850000 3.000000 -15.000000
v 3.000000 0.000000 -15.000000
v 3.000000 0.000000 -14.950000
v 3.000000 3.000000 -14.950000
v 3.000000 3.000000 -14.750000
v 3.000000 0.000000 -14.750000
v 3.000000 0.000000 -14.700000
v 3.000000 3.000000 -14.700000
v 17.000000 0.000000 -14.750000
v 17.000000 3.000000 -14.700000
v 17.000000 0.000000 -14.700000
v 17.000000 3.000000 -14.750000
v 17.000000 3.000000 -14.950000
v 17.000000 0.000000 -15.000000
v 17.000000 3.000000 -15.000000
v 17.000000 0.000000 -14.950000
v 10.150000 3.000000 -15.000000
v 10.150000 0.000000 -15.000000
v 10.150000 0.000000 -19.600000
v 10.150000 3.000000 -19.600000
v 19.600000 3.000000 -19.600000
v 19.600000 0.000000 -19.600000
v 19.600000 0.000000 -15.000000
v 19.600000 3.000000 -15.000000
v 18.200001 3.000000 -15.000000
v 18.200001 0.000000 -15.000000
v 18.200001 0.000000 -14.950000
v 18.200001 3.000000 -14.950000
v 18.200001 3.000000 -14.750000
v 18.200001 0.000000 -14.700000
v 18.200001 3.000000 -14.700000
v 18.200001 0.000000 -14.750000
v 19.600000 3.000000 -14.700000
v 19.600000 0.000000 -14.700000
v 19.600000 0.000000 -5.300000
v 19.600000 3.000000 -5.300000
v 18.200001 3.000000 -5.300000
v 18.200001 0.000000 -5.250000
v 18.200001 0.000000 -5.300000
v 18.200001 3.000000 -5.250000
v 18.200001 0.000000 -5.050000
v 18.200001 0.000000 -5.000000
v 18.200001 3.000000 -5.050000
v 18.200001 3.000000 -5.000000
v 19.600000 3.000000 -5.000000
v 19.600000 0.000000 -5.000000
v 19.600000 0.000000 -0.400000
v 19.600000 3.000000 -0.400000
v 10.150000 3.000000 -0.400000
v 10.150000 0.000000 -5.000000
v 10.150000 3.000000 -5.000000
v 10.150000 0.000000 -0.400000
v 17.000000 3.000000 -5.000000
v 17.000000 0.000000 -5.000000
v 17.000000 3.000000 -5.050000
v 17.000000 0.000000 -5.050000
v 17.000000 3.000000 -5.250000
v 17.000000 0.000000 -5.300000
v 17.000000 3.000000 -5.300000
v 17.000000 0.000000 -5.250000
v 3.000000 3.000000 -5.300000
v 3.000000 0.000000 -5.300000
v 3.000000 0.000000 -5.250000
v 3.000000 3.000000 -5.250000
v 3.000000 3.000000 -5.050000
v 3.000000 0.000000 -5.000000
v 3.000000 3.000000 -5.000000
v 3.000000 0.000000 -5.050000
v 9.850000 3.000000 -5.000000
v 9.850000 0.000000 -5.000000
v 9.850000 0.000000 -0.400000
v 9.850000 3.000000 -0.400000
v 0.400000 3.000000 -0.400000
v 0.400000 0.000000 -0.400000
v 0.400000 0.000000 -5.000000
v 0.400000 3.000000 -5.000000
v 1.800000 3.000000 -5.000000
v 1.800000 0.000000 -5.000000
v 1.800000 3.000000 -5.050000
v 1.800000 0.000000 -5.050000
v 1.800000 3.000000 -5.250000
v 1.800000 0.000000 -5.300000
v 1.800000 3.000000 -5.300000
v 1.800000 0.000000 -5.250000
v 0.400000 0.000000 -5.300000
v 0.400000 3.000000 -5.300000
v 0.400000 0.000000 -14.700000
v 0.400000 3.000000 -14.700000
v 20.000000 0.000000 -20.000000
v 20.000000 3.000000 -20.000000
v 20.000000 3.000000 0.000000
v 20.000000 0.000000 0.000000
v 0.000000 3.000000 -20.000000
v 0.000000 0.000000 -20.000000
v 0.000000 0.000000 0.000000
v 0.000000 3.000000 0.000000
vn -0.0000 -0.0000 -1.0000
vn -1.0000 -0.0000 -0.0000
vn -0.0000 -0.0000 1.0000
vn 1.0000 -0.0000 -0.0000
s 0
f 17//7 18//7 19//7
f 17//7 19//7 20//7
f 21//7 22//7 23//7
f 21//7 24//7 22//7
f 22//8 25//8 23//8
f 22//8 26//8 25//8
f 25//7 27//7 28//7
f 25//7 26//7 27//7
f 29//8 28//8 27//8
f 29//8 27//8 30//8
f 31//8 32//8 33//8
f 31//8 34//8 32//8
f 32//9 35//9 36//9
f 32//9 34//9 35//9
f 19//10 35//10 20//10
f 19//10 36//10 35//10
f 37//9 38//9 39//9
f 37//9 40//9 38//9
f 41//10 38//10 42//10
f 41//10 39//10 38//10
f 43//10 44//10 45//10
f 43//10 45//10 46//10
f 45//7 47//7 48//7
f 45//7 44//7 47//7
f 49//10 50//10 47//10
f 51//10 52//10 53//10
f 47//10 50//10 48//10
f 51//10 53//10 50//10
f 54//10 55//10 56//10
f 54//10 56//10 53//10
f 56//9 57//9 58//9
f 55//9 57//9 56//9
f 59//9 60//9 61//9
f 62//10 57//10 63//10
f 62//10 58//10 57//10
f 64//10 65//10 66//10
f 66//7 67//7 68//7
f 64//10 66//10 69//10
f 66//7 65//7 67//7
f 37//8 68//8 67//8
f 59//9 61//9 70//9
f 37//8 67//8 40//8
f 71//9 72//9 73//9
f 72//10 74//10 75//10
f 76//9 72//9 71//9
f 73//10 72//10 75//10
f 75//7 77//7 78//7
f 75//7 74//7 77//7
f 79//10 80//10 81//10
f 82//8 77//8 83//8
f 82//8 78//8 77//8
f 84//8 85//8 86//8
f 84//8 87//8 85//8
f 85//9 88//9 89//9
f 85//9 87//9 88//9
f 61//8 89//8 88//8
f 61//8 88//8 70//8
f 90//10 91//10 92//10
f 92//10 91//10 93//10
f 94//10 95//10 96//10
f 97//10 95//10 94//10
f 80//7 96//7 95//7
f 80//7 95//7 81//7
f 79//10 98//10 80//10
f 79//9 99//9 98//9
f 79//9 100//9 99//9
f 99//8 100//8 101//8
f 101//7 102//7 103//7
f 101//7 104//7 102//7
f 105//8 102//8 104//8
f 106//8 102//8 105//8
f 107//8 108//8 109//8
f 107//8 109//8 110//8
f 99//8 101//8 103//8
f 111//10 112//10 113//10
f 109//9 112//9 110//9
f 114//10 112//10 111//10
f 109//9 113//9 112//9
f 115//10 116//10 117//10
f 118//10 116//10 115//10
f 116//7 119//7 117//7
f 116//7 120//7 119//7
f 119//10 121//10 122//10
f 119//10 120//10 121//10
f 121//9 123//9 122//9
f 121//9 124//9 123//9
f 123//8 124//8 125//8
f 123//8 125//8 126//8
f 125//7 127//7 126//7
f 125//7 128//7 127//7
f 129//8 127//8 128//8
f 130//8 127//8 129//8
f 131//8 132//8 133//8
f 131//8 134//8 132//8
f 132//9 135//9 133//9
f 132//9 136//9 135//9
f 135//8 136//8 137//8
f 135//8 137//8 138//8
f 137//7 139//7 138//7
f 140//8 139//8 141//8
f 137//7 141//7 139//7
f 142//8 139//8 140//8
f 143//8 144//8 145//8
f 145//8 144//8 146//8
f 144//9 147//9 146//9
f 144//9 148//9 147//9
f 147//8 149//8 150//8
f 149//7 151//7 150//7
f 147//8 148//8 149//8
f 151//10 152//10 153//10
f 151//10 154//10 152//10
f 149//7 154//7 151//7
f 152//9 155//9 153//9
f 152//9 156//9 155//9
f 157//10 155//10 158//10
f 158//10 155//10 156//10
f 159//10 160//10 161//10
f 159//10 162//10 160//10
f 160//7 163//7 161//7
f 160//7 164//7 163//7
f 165//8 163//8 164//8
f 166//8 163//8 165//8
f 167//8 168//8 169//8
f 170//8 168//8 167//8
f 168//9 171//9 169//9
f 168//9 172//9 171//9
f 171//8 172//8 173//8
f 171//8 173//8 174//8
f 173//7 175//7 174//7
f 173//7 176//7 175//7
f 175//10 177//10 178//10
f 175//10 176//10 177//10
f 177//9 179//9 178//9
f 177//9 180//9 179//9
f 181//10 179//10 182//10
f 182//10 179//10 180//10
f 183//10 184//10 185//10
f 186//10 184//10 183//10
f 184//7 187//7 188//7
f 184//7 188//7 185//7
f 188//10 189//10 190//10
f 187//10 189//10 188//10
f 91//9 190//9 189//9
f 191//10 192//10 193//10
f 91//9 189//9 93//9
f 191//10 193//10 194//10
f 191//7 195//7 192//7
f 191//7 196//7 195//7
f 195//8 196//8 197//8
f 195//8 197//8 198//8
f 193//9 198//9 197//9
f 193//9 197//9 194//9
o 11
v 14.500000 1.200000 -11.000000
v 7.000000 1.200000 -11.000000
v 7.000000 1.200000 -9.000000
v 14.500000 1.200000 -9.000000
v 13.000000 1.200000 -4.000000
v 13.000000 0.000000 -2.500000
v 13.000000 0.000000 -4.000000
v 13.000000 1.200000 -2.500000
v 10.500000 0.000000 -4.000000
v 10.500000 1.200000 -4.000000
v 10.500000 1.200000 -2.500000
v 10.500000 0.000000 -2.500000
v 9.500000 1.200000 -17.500000
v 9.500000 0.000000 -16.000000
v 9.500000 0.000000 -17.500000
v 9.500000 1.200000 -16.000000
v 7.000000 0.000000 -17.500000
v 7.000000 1.200000 -17.500000
v 7.000000 1.200000 -16.000000
v 7.000000 0.000000 -16.000000
v 13.000000 1.200000 -17.500000
v 13.000000 0.000000 -16.000000
v 13.000000 0.000000 -17.500000
v 13.000000 1.200000 -16.000000
v 10.500000 0.000000 -17.500000
v 10.500000 1.200000 -17.500000
v 10.500000 1.200000 -16.000000
v 10.500000 0.000000 -16.000000
v 9.500000 1.200000 -4.000000
v 9.500000 0.000000 -2.500000
v 9.500000 0.000000 -4.000000
v 9.500000 1.200000 -2.500000
v 7.000000 0.000000 -4.000000
v 7.000000 1.200000 -4.000000
v 7.000000 1.200000 -2.500000
v 7.000000 0.000000 -2.500000
v 7.000000 0.000000 -11.000000
v 14.500000 0.000000 -9.000000
v 7.000000 0.000000 -9.000000
v 14.500000 0.000000 -11.000000
vn -0.0000 1.0000 -0.0000
vn 1.0000 -0.0000 -0.0000
vn -0.0000 -0.0000 -1.0000
vn -1.0000 -0.0000 -0.0000
vn -0.0000 -0.0000 1.0000
s 0
f 199//11 200//11 201//11
f 199//11 201//11 202//11
f 203//12 204//12 205//12
f 203//12 206//12 204//12
f 203//13 207//13 208//13
f 207//14 209//14 208//14
f 207//14 210//14 209//14
f 204//15 206//15 209//15
f 203//11 209//11 206//11
f 203//11 208//11 209//11
f 211//12 212//12 213//12
f 204//15 209//15 210//15
f 211//12 214//12 212//12
f 211//13 215//13 216//13
f 211//13 213//13 215//13
f 203//13 205//13 207//13
f 215//14 217//14 216//14
f 215//14 218//14 217//14
f 212//15 214//15 217//15
f 212//15 217//15 218//15
f 211//11 217//11 214//11
f 219//12 220//12 221//12
f 219//12 222//12 220//12
f 219//13 223//13 224//13
f 219//13 221//13 223//13
f 223//14 225//14 224//14
f 223//14 226//14 225//14
f 220//15 222//15 225//15
f 220//15 225//15 226//15
f 219//11 225//11 222//11
f 219//11 224//11 225//11
f 227//12 228//12 229//12
f 227//12 230//12 228//12
f 227//13 231//13 232//13
f 227//13 229//13 231//13
f 231//14 233//14 232//14
f 231//14 234//14 233//14
f 228//15 230//15 233//15
f 228//15 233//15 234//15
f 227//11 233//11 230//11
f 227//11 232//11 233//11
f 199//13 235//13 200//13
f 200//14 235//14 201//14
f 201//15 236//15 202//15
f 201//14 235//14 237//14
f 201//15 237//15 236//15
f 199//12 236//12 238//12
f 199//12 202//12 236//12
f 199//13 238//13 235//13
f 211//11 216//11 217//11
o 4
v 13.200000 0.000000 -12.100000
v 13.200000 0.600000 -11.300000
v 13.200000 0.600000 -12.100000
v 13.200000 0.000000 -11.300000
v 14.200000 0.000000 -11.300000
v 14.200000 0.600000 -11.300000
v 14.200000 0.000000 -12.100000
v 14.200000 0.600000 -12.100000
v 12.700000 0.000000 -11.300000
v 12.700000 0.600000 -12.100000
v 12.700000 0.600000 -11.300000
v 12.700000 0.000000 -12.100000
v 11.700000 0.000000 -12.100000
v 11.700000 0.600000 -12.100000
v 11.700000 0.600000 -11.300000
v 11.700000 0.000000 -11.300000
v 11.200000 0.600000 -12.100000
v 11.200000 0.000000 -11.300000
v 11.200000 0.000000 -12.100000
v 11.200000 0.600000 -11.300000
v 10.200000 0.000000 -12.100000
v 10.200000 0.600000 -12.100000
v 10.200000 0.600000 -11.300000
v 10.200000 0.000000 -11.300000
v 9.700000 0.600000 -12.100000
v 9.700000 0.000000 -11.300000
v 9.700000 0.000000 -12.100000
v 9.700000 0.600000 -11.300000
v 8.700000 0.000000 -12.100000
v 8.700000 0.600000 -12.100000
v 8.700000 0.600000 -11.300000
v 8.700000 0.000000 -11.300000
v 8.200000 0.600000 -12.100000
v 8.200000 0.000000 -11.300000
v 8.200000 0.000000 -12.100000
v 8.200000 0.600000 -11.300000
v 7.200000 0.000000 -12.100000
v 7.200000 0.600000 -12.100000
v 7.200000 0.600000 -11.300000
v 7.200000 0.000000 -11.300000
v 8.200000 0.600000 -8.700000
v 8.200000 0.000000 -7.900000
v 8.200000 0.000000 -8.700000
v 8.200000 0.600000 -7.900000
v 7.200000 0.000000 -8.700000
v 7.200000 0.600000 -8.700000
v 7.200000 0.600000 -7.900000
v 7.200000 0.000000 -7.900000
v 9.700000 0.600000 -8.700000
v 9.700000 0.000000 -7.900000
v 9.700000 0.000000 -8.700000
v 9.700000 0.600000 -7.900000
v 8.700000 0.000000 -8.700000
v 8.700000 0.600000 -8.700000
v 8.700000 0.600000 -7.900000
v 8.700000 0.000000 -7.900000
v 12.700000 0.600000 -7.900000
v 12.700000 0.000000 -8.700000
v 12.700000 0.600000 -8.700000
v 12.700000 0.000000 -7.900000
v 11.700000 0.000000 -8.700000
v 11.700000 0.600000 -8.700000
v 11.700000 0.000000 -7.900000
v 11.700000 0.600000 -7.900000
v 11.200000 0.600000 -7.900000
v 11.200000 0.000000 -7.900000
v 11.200000 0.000000 -8.700000
v 11.200000 0.600000 -8.700000
v 10.200000 0.600000 -8.700000
v 10.200000 0.000000 -8.700000
v 10.200000 0.000000 -7.900000
v 10.200000 0.600000 -7.900000
v 13.200000 0.600000 -7.900000
v 13.200000 0.600000 -8.700000
v 13.200000 0.000000 -8.700000
v 14.200000 0.000000 -7.900000
v 14.200000 0.600000 -7.900000
v 13.200000 0.000000 -7.900000
v 14.200000 0.000000 -8.700000
v 14.200000 0.600000 -8.700000
v 12.500000 0.600000 -2.200000
v 12.500000 0.000000 -1.400000
v 12.500000 0.000000 -2.200000
v 12.500000 0.600000 -1.400000
v 11.000000 0.000000 -2.200000
v 11.000000 0.600000 -2.200000
v 11.000000 0.600000 -1.400000
v 11.000000 0.000000 -1.400000
v 7.500000 0.600000 -1.400000
v 7.500000 0.600000 -2.200000
v 7.500000 0.000000 -2.200000
v 7.500000 0.000000 -1.400000
v 9.000000 0.000000 -1.400000
v 9.000000 0.600000 -1.400000
v 9.000000 0.000000 -2.200000
v 9.000000 0.600000 -2.200000
v 9.000000 0.600000 -18.600000
v 7.500000 0.000000 -18.600000
v 7.500000 0.600000 -18.600000
v 9.000000 0.000000 -18.600000
v 7.500000 0.600000 -17.799999
v 7.500000 0.000000 -17.799999
v 9.000000 0.000000 -17.799999
v 9.000000 0.600000 -17.799999
v 12.500000 0.600000 -18.600000
v 11.000000 0.000000 -18.600000
v 11.000000 0.600000 -18.600000
v 12.500000 0.000000 -18.600000
v 11.000000 0.000000 -17.799999
v 11.000000 0.600000 -17.799999
v 12.500000 0.000000 -17.799999
v 12.500000 0.600000 -17.799999
vn -1.0000 -0.0000 -0.0000
vn -0.0000 -0.0000 1.0000
vn 1.0000 -0.0000 -0.0000
vn -0.0000 -0.0000 -1.0000
vn -0.0000 1.0000 -0.0000
s 0
f 239//16 240//16 241//16
f 239//16 242//16 240//16
f 240//17 243//17 244//17
f 240//17 242//17 243//17
f 243//18 245//18 246//18
f 243//18 246//18 244//18
f 239//19 246//19 245//19
f 240//20 244//20 246//20
f 240//20 246//20 241//20
f 247//18 248//18 249//18
f 247//18 250//18 248//18
f 248//19 251//19 252//19
f 251//16 253//16 252//16
f 248//19 250//19 251//19
f 251//16 254//16 253//16
f 247//17 253//17 254//17
f 248//20 252//20 253//20
f 255//18 256//18 257//18
f 248//20 253//20 249//20
f 255//18 258//18 256//18
f 255//19 259//19 260//19
f 255//19 257//19 259//19
f 259//16 261//16 260//16
f 256//17 258//17 261//17
f 259//16 262//16 261//16
f 255//20 261//20 258//20
f 256//17 261//17 262//17
f 255//20 260//20 261//20
f 263//18 264//18 265//18
f 263//18 266//18 264//18
f 263//19 267//19 268//19
f 267//16 269//16 268//16
f 264//17 266//17 269//17
f 264//17 269//17 270//17
f 263//19 265//19 267//19
f 263//20 268//20 269//20
f 271//18 272//18 273//18
f 267//16 270//16 269//16
f 271//18 274//18 272//18
f 271//19 275//19 276//19
f 271//19 273//19 275//19
f 275//16 277//16 276//16
f 272//17 274//17 277//17
f 272//17 277//17 278//17
f 275//16 278//16 277//16
f 263//20 269//20 266//20
f 271//20 276//20 277//20
f 279//18 280//18 281//18
f 279//18 282//18 280//18
f 279//19 283//19 284//19
f 279//19 281//19 283//19
f 271//20 277//20 274//20
f 283//16 285//16 284//16
f 283//16 286//16 285//16
f 280//17 285//17 286//17
f 280//17 282//17 285//17
f 279//20 285//20 282//20
f 279//20 284//20 285//20
f 287//18 288//18 289//18
f 287//18 290//18 288//18
f 287//19 291//19 292//19
f 287//19 289//19 291//19
f 291//16 293//16 292//16
f 291//16 294//16 293//16
f 288//17 290//17 293//17
f 288//17 293//17 294//17
f 287//20 293//20 290//20
f 295//18 296//18 297//18
f 287//20 292//20 293//20
f 295//18 298//18 296//18
f 296//19 299//19 300//19
f 296//19 300//19 297//19
f 300//16 299//16 301//16
f 300//16 301//16 302//16
f 295//17 301//17 298//17
f 295//17 302//17 301//17
f 295//20 297//20 300//20
f 295//20 300//20 302//20
f 303//18 304//18 305//18
f 303//18 305//18 306//18
f 305//19 307//19 306//19
f 305//19 308//19 307//19
f 307//16 308//16 309//16
f 307//16 309//16 310//16
f 303//17 310//17 309//17
f 303//20 306//20 307//20
f 303//20 307//20 310//20
f 239//19 241//19 246//19
f 311//16 312//16 313//16
f 311//17 314//17 315//17
f 311//16 313//16 316//16
f 303//17 309//17 304//17
f 311//17 316//17 314//17
f 314//18 317//18 318//18
f 314//18 318//18 315//18
f 312//19 318//19 313//19
f 313//19 318//19 317//19
f 311//20 315//20 318//20
f 247//17 249//17 253//17
f 311//20 318//20 312//20
f 319//18 320//18 321//18
f 319//18 322//18 320//18
f 319//19 323//19 324//19
f 319//19 321//19 323//19
f 323//16 325//16 324//16
f 323//16 326//16 325//16
f 320//17 322//17 325//17
f 320//17 325//17 326//17
f 319//20 325//20 322//20
f 319//20 324//20 325//20
f 327//16 328//16 329//16
f 327//16 329//16 330//16
f 327//17 330//17 331//17
f 327//17 331//17 332//17
f 331//18 333//18 334//18
f 331//18 334//18 332//18
f 328//19 334//19 329//19
f 329//19 334//19 333//19
f 327//20 332//20 334//20
f 335//19 336//19 337//19
f 327//20 334//20 328//20
f 335//19 338//19 336//19
f 339//17 340//17 341//17
f 336//16 340//16 339//16
f 339//17 341//17 342//17
f 336//16 339//16 337//16
f 335//18 341//18 338//18
f 335//18 342//18 341//18
f 335//20 339//20 342//20
f 335//20 337//20 339//20
f 343//19 344//19 345//19
f 343//19 346//19 344//19
f 344//16 347//16 348//16
f 348//17 347//17 349//17
f 343//18 349//18 346//18
f 344//16 348//16 345//16
f 348//17 349//17 350//17
f 343//18 350//18 349//18
f 343//20 348//20 350//20
f 343//20 345//20 348//20
o 10
v 18.799999 2.000000 -18.799999
v 19.500000 0.000000 -18.799999
v 19.500000 2.000000 -18.799999
v 18.799999 0.000000 -18.799999
v 19.500000 0.000000 -19.500000
v 19.500000 2.000000 -19.500000
v 18.799999 0.000000 -19.500000
v 18.799999 2.000000 -19.500000
v 1.200000 2.000000 -18.799999
v 0.500000 2.000000 -18.799999
v 1.200000 0.000000 -18.799999
v 0.500000 0.000000 -18.799999
v 1.200000 0.000000 -19.500000
v 1.200000 2.000000 -19.500000
v 0.500000 0.000000 -19.500000
v 0.500000 2.000000 -19.500000
v 1.200000 2.000000 -1.200000
v 1.200000 2.000000 -0.500000
v 1.200000 0.000000 -0.500000
v 1.200000 0.000000 -1.200000
v 0.500000 0.000000 -1.200000
v 0.500000 2.000000 -1.200000
v 0.500000 2.000000 -0.500000
v 0.500000 0.000000 -0.500000
v 19.500000 2.000000 -1.200000
v 18.799999 0.000000 -1.200000
v 18.799999 2.000000 -1.200000
v 19.500000 0.000000 -1.200000
v 18.799999 0.000000 -0.500000
v 18.799999 2.000000 -0.500000
v 19.500000 0.000000 -0.500000
v 19.500000 2.000000 -0.500000
vn -0.0000 -0.0000 1.0000
vn 1.0000 -0.0000 -0.0000
vn -0.0000 -0.0000 -1.0000
vn -1.0000 -0.0000 -0.0000
vn -0.0000 1.0000 -0.0000
s 0
f 351//21 352//21 353//21
f 351//21 354//21 352//21
f 352//22 355//22 356//22
f 352//22 356//22 353//22
f 356//23 357//23 358//23
f 356//23 355//23 357//23
f 351//24 358//24 357//24
f 351//24 357//24 354//24
f 353//25 356//25 358//25
f 351//25 353//25 358//25
f 359//21 360//21 361//21
f 360//21 362//21 361//21
f 361//22 363//22 364//22
f 363//23 365//23 364//23
f 364//23 365//23 366//23
f 360//24 366//24 365//24
f 360//24 365//24 362//24
f 367//22 368//22 369//22
f 359//25 364//25 360//25
f 360//25 364//25 366//25
f 367//22 369//22 370//22
f 367//23 371//23 372//23
f 367//23 370//23 371//23
f 371//24 373//24 372//24
f 371//24 374//24 373//24
f 368//21 373//21 369//21
f 369//21 373//21 374//21
f 367//25 373//25 368//25
f 367//25 372//25 373//25
f 375//23 376//23 377//23
f 375//23 378//23 376//23
f 376//24 379//24 380//24
f 376//24 380//24 377//24
f 380//21 381//21 382//21
f 380//21 379//21 381//21
f 375//22 381//22 378//22
f 375//22 382//22 381//22
f 375//25 380//25 382//25
f 375//25 377//25 380//25
f 359//22 361//22 364//22
o 13
v 17.000000 3.000000 -5.050000
v 18.200001 0.000000 -5.050000
v 18.200001 3.000000 -5.050000
v 17.000000 3.000000 -5.250000
v 18.200001 3.000000 -5.250000
v 17.000000 0.000000 -5.250000
v 17.000000 0.000000 -5.050000
v 18.200001 0.000000 -5.250000
v 1.800000 3.000000 -5.050000
v 3.000000 0.000000 -5.050000
v 3.000000 3.000000 -5.050000
v 1.800000 0.000000 -5.050000
v 1.800000 0.000000 -5.250000
v 3.000000 3.000000 -5.250000
v 3.000000 0.000000 -5.250000
v 1.800000 3.000000 -5.250000
v 5.000000 3.000000 -6.550000
v 6.200000 0.000000 -6.550000
v 6.200000 3.000000 -6.550000
v 5.000000 0.000000 -6.550000
v 5.000000 0.000000 -6.750000
v 5.000000 3.000000 -6.750000
v 6.200000 3.000000 -6.750000
v 6.200000 0.000000 -6.750000
v 17.250000 0.000000 -11.500000
v 17.250000 3.000000 -8.500000
v 17.250000 3.000000 -11.500000
v 17.250000 0.000000 -8.500000
v 17.450001 0.000000 -11.500000
v 17.450001 3.000000 -11.500000
v 17.450001 0.000000 -8.500000
v 17.450001 3.000000 -8.500000
v 18.200001 3.000000 -14.750000
v 17.000000 3.000000 -14.750000
v 18.200001 0.000000 -14.750000
v 17.000000 0.000000 -14.750000
v 18.200001 3.000000 -14.950000
v 17.000000 0.000000 -14.950000
v 17.000000 3.000000 -14.950000
v 18.200001 0.000000 -14.950000
v 6.200000 0.000000 -13.250000
v 6.200000 3.000000 -13.250000
v 5.000000 3.000000 -13.250000
v 5.000000 0.000000 -13.250000
v 6.200000 3.000000 -13.450000
v 5.000000 0.000000 -13.450000
v 5.000000 3.000000 -13.450000
v 6.200000 0.000000 -13.450000
v 3.000000 3.000000 -14.950000
v 1.800000 0.000000 -14.950000
v 1.800000 3.000000 -14.950000
v 3.000000 0.000000 -14.950000
v 3.000000 3.000000 -14.750000
v 1.800000 3.000000 -14.750000
v 3.000000 0.000000 -14.750000
v 1.800000 0.000000 -14.750000
vn -0.0000 -0.0000 1.0000
vn -0.0000 -0.0000 -1.0000
vn -1.0000 -0.0000 -0.0000
vn 1.0000 -0.0000 -0.0000
s 0
f 383//26 384//26 385//26
f 386//27 387//27 388//27
f 383//26 389//26 384//26
f 387//27 390//27 388//27
f 391//26 392//26 393//26
f 391//26 394//26 392//26
f 395//27 396//27 397//27
f 395//27 398//27 396//27
f 399//26 400//26 401//26
f 399//26 402//26 400//26
f 403//27 404//27 405//27
f 403//27 405//27 406//27
f 407//28 408//28 409//28
f 407//28 410//28 408//28
f 411//29 412//29 413//29
f 412//29 414//29 413//29
f 415//26 416//26 417//26
f 416//26 418//26 417//26
f 419//27 420//27 421//27
f 419//27 422//27 420//27
f 423//26 424//26 425//26
f 423//26 425//26 426//26
f 427//27 428//27 429//27
f 427//27 430//27 428//27
f 431//27 432//27 433//27
f 431//27 434//27 432//27
f 435//26 436//26 437//26
f 436//26 438//26 437//26
